<svg width="198" height="59" viewBox="0 0 198 59" fill="none" xmlns="http://www.w3.org/2000/svg">
<path d="M74.272 25H75.776V13.576H79.968V13H70.08V13.576H74.272V25ZM81.1989 25H82.5749V18.776C83.5029 18.232 83.9829 18.04 84.4789 18.04C85.5189 18.04 86.4309 18.728 86.4309 20.312V25H87.8069V19.816C87.8069 18.152 86.7829 16.968 85.1029 16.968C84.8309 16.968 84.4309 17.048 84.1429 17.176L82.5749 18.344V12.36H81.1989V25ZM96.139 23.256C95.339 23.752 94.555 24.024 93.787 24.024C92.219 24.024 90.747 22.92 90.747 20.632V20.536H96.539C96.539 18.36 95.067 16.968 93.147 16.968C91.131 16.968 89.467 18.952 89.467 21.224C89.467 23.672 91.195 25.208 93.339 25.208C93.771 25.208 94.059 25.144 94.267 25.064L96.331 23.544L96.139 23.256ZM90.763 20.136C90.923 18.472 91.803 17.368 92.987 17.368C94.075 17.368 94.923 18.408 95.003 20.136H90.763ZM113.554 13H112.818L107.874 23.016L102.85 13H102.066V25H102.706V16.04L107.186 25H107.57L112.05 15.992V25H113.554V13ZM122.711 17.16H121.335V23.384C120.407 23.928 119.927 24.12 119.431 24.12C118.391 24.12 117.479 23.432 117.479 21.848V17.16H116.103V22.344C116.103 24.008 117.127 25.192 118.807 25.192C119.079 25.192 119.479 25.112 119.767 24.984L121.399 23.768L121.991 25H122.711V17.16ZM126.819 25.208C128.483 25.208 129.763 24.264 129.763 22.76C129.763 21.848 129.235 21.176 128.099 20.584L126.835 19.992C125.971 19.592 125.619 19.208 125.619 18.6C125.619 17.928 126.099 17.384 126.947 17.384C127.779 17.384 128.371 17.784 128.915 18.536L129.635 17.464C129.027 17.112 128.211 16.952 127.411 16.952C125.731 16.952 124.563 17.928 124.563 19.208C124.563 20.104 125.011 20.712 126.083 21.208L127.363 21.8C128.403 22.28 128.659 22.744 128.659 23.432C128.659 24.2 128.035 24.792 127.107 24.792C126.195 24.792 125.363 24.088 124.947 23.352L124.179 24.408C124.883 24.984 125.891 25.208 126.819 25.208ZM137.655 23.256C136.855 23.752 136.071 24.024 135.303 24.024C133.735 24.024 132.263 22.92 132.263 20.632V20.536H138.055C138.055 18.36 136.583 16.968 134.663 16.968C132.647 16.968 130.983 18.952 130.983 21.224C130.983 23.672 132.711 25.208 134.855 25.208C135.287 25.208 135.575 25.144 135.783 25.064L137.847 23.544L137.655 23.256ZM132.279 20.136C132.439 18.472 133.319 17.368 134.503 17.368C135.591 17.368 136.439 18.408 136.519 20.136H132.279ZM146.352 17.16H144.976V23.384C144.048 23.928 143.568 24.12 143.072 24.12C142.032 24.12 141.12 23.432 141.12 21.848V17.16H139.744V22.344C139.744 24.008 140.768 25.192 142.448 25.192C142.72 25.192 143.12 25.112 143.408 24.984L145.04 23.768L145.632 25H146.352V17.16ZM150.028 25V18.808C150.94 18.232 151.42 18.04 152.028 18.04C153.068 18.04 153.692 18.824 153.692 20.024V25H155.068V18.856C155.98 18.296 156.476 18.04 157.068 18.04C158.108 18.04 158.732 18.824 158.732 20.024V25H160.108V19.528C160.108 18.04 159.036 16.968 157.516 16.968C157.228 16.968 156.844 17.048 156.556 17.176L154.94 18.52C154.588 17.592 153.836 16.968 152.588 16.968C152.3 16.968 151.916 17.048 151.628 17.176L149.98 18.408L149.372 17.16H148.652V25H150.028ZM169.041 16.968C166.913 16.968 165.217 18.696 165.217 21.112C165.217 23.352 166.769 25.192 168.945 25.192C171.073 25.192 172.769 23.48 172.769 21.064C172.769 18.824 171.217 16.968 169.041 16.968ZM166.609 20.28C166.609 18.424 167.393 17.512 168.465 17.512C169.905 17.512 171.377 19.112 171.377 21.896C171.377 23.752 170.593 24.664 169.521 24.664C168.081 24.664 166.609 23.064 166.609 20.28ZM173.615 17.608H174.703V25H176.079V17.608H178.527V17.16H176.079V14.808C176.079 13.576 176.575 12.92 177.263 12.92C177.727 12.92 178.143 13.192 178.543 13.608L179.183 12.488C178.863 12.344 178.399 12.296 177.999 12.296C176.863 12.296 175.823 12.872 175.215 14.088C174.847 14.824 174.703 15.8 174.703 16.872V17.16H173.615V17.608ZM75.168 47L79.584 35H78.944L75.344 44.824L71.728 35H70.096L74.528 47H75.168ZM80.8395 47H82.2155V39.16H80.8395V47ZM80.6155 36.072C80.6155 36.568 81.0155 36.984 81.5115 36.984C82.0075 36.984 82.4395 36.568 82.4395 36.072C82.4395 35.576 82.0075 35.16 81.5115 35.16C81.0155 35.16 80.6155 35.576 80.6155 36.072ZM86.335 47.208C87.999 47.208 89.279 46.264 89.279 44.76C89.279 43.848 88.751 43.176 87.615 42.584L86.351 41.992C85.487 41.592 85.135 41.208 85.135 40.6C85.135 39.928 85.615 39.384 86.463 39.384C87.295 39.384 87.887 39.784 88.431 40.536L89.151 39.464C88.543 39.112 87.727 38.952 86.927 38.952C85.247 38.952 84.079 39.928 84.079 41.208C84.079 42.104 84.527 42.712 85.599 43.208L86.879 43.8C87.919 44.28 88.175 44.744 88.175 45.432C88.175 46.2 87.551 46.792 86.623 46.792C85.711 46.792 84.879 46.088 84.463 45.352L83.695 46.408C84.399 46.984 85.407 47.208 86.335 47.208ZM91.0583 47H92.4343V39.16H91.0583V47ZM90.8343 36.072C90.8343 36.568 91.2343 36.984 91.7303 36.984C92.2263 36.984 92.6583 36.568 92.6583 36.072C92.6583 35.576 92.2263 35.16 91.7303 35.16C91.2343 35.16 90.8343 35.576 90.8343 36.072ZM98.0098 38.968C95.8818 38.968 94.1858 40.696 94.1858 43.112C94.1858 45.352 95.7378 47.192 97.9138 47.192C100.042 47.192 101.738 45.48 101.738 43.064C101.738 40.824 100.186 38.968 98.0098 38.968ZM95.5778 42.28C95.5778 40.424 96.3618 39.512 97.4338 39.512C98.8738 39.512 100.346 41.112 100.346 43.896C100.346 45.752 99.5618 46.664 98.4898 46.664C97.0498 46.664 95.5778 45.064 95.5778 42.28ZM103.48 47H104.856V40.776C105.784 40.232 106.264 40.04 106.76 40.04C107.8 40.04 108.712 40.728 108.712 42.312V47H110.088V41.816C110.088 40.152 109.064 38.968 107.384 38.968C107.112 38.968 106.712 39.048 106.424 39.176L104.792 40.392L104.2 39.16H103.48V47ZM112.388 40.52C113.3 40.104 114.02 39.944 114.548 39.944C115.748 39.944 116.468 40.488 116.468 42.104V42.376C115.172 42.424 114.116 42.584 113.38 42.888C112.1 43.4 111.732 44.248 111.732 45.032C111.732 46.28 112.74 47.128 114.18 47.128C114.596 47.128 115.124 47.016 115.428 46.856L116.516 45.944L117.124 47H117.844V41.528C117.844 40.152 116.916 38.968 115.204 38.968C114.9 38.968 114.564 39.016 114.18 39.112L112.228 40.2L112.388 40.52ZM113.204 44.744C113.204 43.944 113.636 43.432 114.436 43.112C114.98 42.904 115.668 42.776 116.468 42.728V45.608C115.812 45.992 115.284 46.136 114.804 46.136C113.732 46.136 113.204 45.496 113.204 44.744ZM124.25 40.424V39.016C123.802 39.016 123.322 39.144 123.098 39.256L121.434 40.808L120.778 39.16H120.058V47H121.434V41.208C122.202 40.744 123.354 40.488 124.25 40.424ZM124.939 39.16L128.091 47L126.667 50.36H127.307L132.027 39.16H131.387L128.827 45.288L126.411 39.16H124.939ZM140.235 35L135.627 47H136.299L137.851 42.888H142.251L143.771 47H145.387L140.875 35H140.235ZM138.059 42.312L140.059 37L142.027 42.312H138.059ZM150.828 40.424V39.016C150.38 39.016 149.9 39.144 149.676 39.256L148.012 40.808L147.356 39.16H146.636V47H148.012V41.208C148.78 40.744 149.932 40.488 150.828 40.424ZM154.017 44.632V39.608H156.577V39.16H154.017V37.112H153.345L152.657 39.16H151.553V39.608H152.641V44.92C152.641 46.376 153.249 47.192 154.593 47.192C154.737 47.192 154.945 47.16 155.089 47.112L156.625 46.056L156.465 45.768C155.985 45.96 155.617 46.072 155.105 46.072C154.321 46.072 154.017 45.688 154.017 44.632Z" fill="white"/>
<path d="M3.02706 46.272L16.9828 12.986L30.9385 46.272H3.02706Z" stroke="white"/>
<path d="M16.9475 46.272L30.9032 12.986L44.8589 46.272H16.9475Z" stroke="white"/>
<path d="M45.4156 12.1933L31.4599 45.4793L17.5042 12.1933L45.4156 12.1933Z" stroke="white"/>
<path d="M31.9812 46.272L45.9369 12.986L59.8926 46.272L31.9812 46.272Z" stroke="white"/>
</svg>
