<svg width="225" height="30" viewBox="0 0 225 30" fill="none" xmlns="http://www.w3.org/2000/svg">
<path d="M49.9221 24.4736H51.2381V14.4776H54.9061V13.9736H46.2541V14.4776H49.9221V24.4736ZM55.9831 24.4736H57.1871V19.0276C57.9991 18.5516 58.4191 18.3836 58.8531 18.3836C59.7631 18.3836 60.5611 18.9856 60.5611 20.3716V24.4736H61.7651V19.9376C61.7651 18.4816 60.8691 17.4456 59.3991 17.4456C59.1611 17.4456 58.8111 17.5156 58.5591 17.6276L57.1871 18.6496V13.4136H55.9831V24.4736ZM69.0557 22.9476C68.3557 23.3816 67.6697 23.6196 66.9977 23.6196C65.6257 23.6196 64.3377 22.6536 64.3377 20.6516V20.5676H69.4057C69.4057 18.6636 68.1177 17.4456 66.4377 17.4456C64.6737 17.4456 63.2177 19.1816 63.2177 21.1696C63.2177 23.3116 64.7297 24.6556 66.6057 24.6556C66.9837 24.6556 67.2357 24.5996 67.4177 24.5296L69.2237 23.1996L69.0557 22.9476ZM64.3517 20.2176C64.4917 18.7616 65.2617 17.7956 66.2977 17.7956C67.2497 17.7956 67.9917 18.7056 68.0617 20.2176H64.3517ZM84.2936 13.9736H83.6496L79.3236 22.7376L74.9276 13.9736H74.2416V24.4736H74.8016V16.6336L78.7216 24.4736H79.0576L82.9776 16.5916V24.4736H84.2936V13.9736ZM92.3064 17.6136H91.1024V23.0596C90.2904 23.5356 89.8704 23.7036 89.4364 23.7036C88.5264 23.7036 87.7284 23.1016 87.7284 21.7156V17.6136H86.5244V22.1496C86.5244 23.6056 87.4204 24.6416 88.8904 24.6416C89.1284 24.6416 89.4784 24.5716 89.7304 24.4596L91.1584 23.3956L91.6764 24.4736H92.3064V17.6136ZM95.901 24.6556C97.357 24.6556 98.477 23.8296 98.477 22.5136C98.477 21.7156 98.015 21.1276 97.021 20.6096L95.915 20.0916C95.159 19.7416 94.851 19.4056 94.851 18.8736C94.851 18.2856 95.271 17.8096 96.013 17.8096C96.741 17.8096 97.259 18.1596 97.735 18.8176L98.365 17.8796C97.833 17.5716 97.119 17.4316 96.419 17.4316C94.949 17.4316 93.927 18.2856 93.927 19.4056C93.927 20.1896 94.319 20.7216 95.257 21.1556L96.377 21.6736C97.287 22.0936 97.511 22.4996 97.511 23.1016C97.511 23.7736 96.965 24.2916 96.153 24.2916C95.355 24.2916 94.627 23.6756 94.263 23.0316L93.591 23.9556C94.207 24.4596 95.089 24.6556 95.901 24.6556ZM105.382 22.9476C104.682 23.3816 103.996 23.6196 103.324 23.6196C101.952 23.6196 100.664 22.6536 100.664 20.6516V20.5676H105.732C105.732 18.6636 104.444 17.4456 102.764 17.4456C101 17.4456 99.5439 19.1816 99.5439 21.1696C99.5439 23.3116 101.056 24.6556 102.932 24.6556C103.31 24.6556 103.562 24.5996 103.744 24.5296L105.55 23.1996L105.382 22.9476ZM100.678 20.2176C100.818 18.7616 101.588 17.7956 102.624 17.7956C103.576 17.7956 104.318 18.7056 104.388 20.2176H100.678ZM112.992 17.6136H111.788V23.0596C110.976 23.5356 110.556 23.7036 110.122 23.7036C109.212 23.7036 108.414 23.1016 108.414 21.7156V17.6136H107.21V22.1496C107.21 23.6056 108.106 24.6416 109.576 24.6416C109.814 24.6416 110.164 24.5716 110.416 24.4596L111.844 23.3956L112.362 24.4736H112.992V17.6136ZM116.209 24.4736V19.0556C117.007 18.5516 117.427 18.3836 117.959 18.3836C118.869 18.3836 119.415 19.0696 119.415 20.1196V24.4736H120.619V19.0976C121.417 18.6076 121.851 18.3836 122.369 18.3836C123.279 18.3836 123.825 19.0696 123.825 20.1196V24.4736H125.029V19.6856C125.029 18.3836 124.091 17.4456 122.761 17.4456C122.509 17.4456 122.173 17.5156 121.921 17.6276L120.507 18.8036C120.199 17.9916 119.541 17.4456 118.449 17.4456C118.197 17.4456 117.861 17.5156 117.609 17.6276L116.167 18.7056L115.635 17.6136H115.005V24.4736H116.209ZM132.845 17.4456C130.983 17.4456 129.499 18.9576 129.499 21.0716C129.499 23.0316 130.857 24.6416 132.761 24.6416C134.623 24.6416 136.107 23.1436 136.107 21.0296C136.107 19.0696 134.749 17.4456 132.845 17.4456ZM130.717 20.3436C130.717 18.7196 131.403 17.9216 132.341 17.9216C133.601 17.9216 134.889 19.3216 134.889 21.7576C134.889 23.3816 134.203 24.1796 133.265 24.1796C132.005 24.1796 130.717 22.7796 130.717 20.3436ZM136.848 18.0056H137.8V24.4736H139.004V18.0056H141.146V17.6136H139.004V15.5556C139.004 14.4776 139.438 13.9036 140.04 13.9036C140.446 13.9036 140.81 14.1416 141.16 14.5056L141.72 13.5256C141.44 13.3996 141.034 13.3576 140.684 13.3576C139.69 13.3576 138.78 13.8616 138.248 14.9256C137.926 15.5696 137.8 16.4236 137.8 17.3616V17.6136H136.848V18.0056ZM148.733 24.4736L152.597 13.9736H152.037L148.887 22.5696L145.723 13.9736H144.295L148.173 24.4736H148.733ZM153.696 24.4736H154.9V17.6136H153.696V24.4736ZM153.5 14.9116C153.5 15.3456 153.85 15.7096 154.284 15.7096C154.718 15.7096 155.096 15.3456 155.096 14.9116C155.096 14.4776 154.718 14.1136 154.284 14.1136C153.85 14.1136 153.5 14.4776 153.5 14.9116ZM158.505 24.6556C159.961 24.6556 161.081 23.8296 161.081 22.5136C161.081 21.7156 160.619 21.1276 159.625 20.6096L158.519 20.0916C157.763 19.7416 157.455 19.4056 157.455 18.8736C157.455 18.2856 157.875 17.8096 158.617 17.8096C159.345 17.8096 159.863 18.1596 160.339 18.8176L160.969 17.8796C160.437 17.5716 159.723 17.4316 159.023 17.4316C157.553 17.4316 156.531 18.2856 156.531 19.4056C156.531 20.1896 156.923 20.7216 157.861 21.1556L158.981 21.6736C159.891 22.0936 160.115 22.4996 160.115 23.1016C160.115 23.7736 159.569 24.2916 158.757 24.2916C157.959 24.2916 157.231 23.6756 156.867 23.0316L156.195 23.9556C156.811 24.4596 157.693 24.6556 158.505 24.6556ZM162.637 24.4736H163.841V17.6136H162.637V24.4736ZM162.441 14.9116C162.441 15.3456 162.791 15.7096 163.225 15.7096C163.659 15.7096 164.037 15.3456 164.037 14.9116C164.037 14.4776 163.659 14.1136 163.225 14.1136C162.791 14.1136 162.441 14.4776 162.441 14.9116ZM168.72 17.4456C166.858 17.4456 165.374 18.9576 165.374 21.0716C165.374 23.0316 166.732 24.6416 168.636 24.6416C170.498 24.6416 171.982 23.1436 171.982 21.0296C171.982 19.0696 170.624 17.4456 168.72 17.4456ZM166.592 20.3436C166.592 18.7196 167.278 17.9216 168.216 17.9216C169.476 17.9216 170.764 19.3216 170.764 21.7576C170.764 23.3816 170.078 24.1796 169.14 24.1796C167.88 24.1796 166.592 22.7796 166.592 20.3436ZM173.507 24.4736H174.711V19.0276C175.523 18.5516 175.943 18.3836 176.377 18.3836C177.287 18.3836 178.085 18.9856 178.085 20.3716V24.4736H179.289V19.9376C179.289 18.4816 178.393 17.4456 176.923 17.4456C176.685 17.4456 176.335 17.5156 176.083 17.6276L174.655 18.6916L174.137 17.6136H173.507V24.4736ZM181.301 18.8036C182.099 18.4396 182.729 18.2996 183.191 18.2996C184.241 18.2996 184.871 18.7756 184.871 20.1896V20.4276C183.737 20.4696 182.813 20.6096 182.169 20.8756C181.049 21.3236 180.727 22.0656 180.727 22.7516C180.727 23.8436 181.609 24.5856 182.869 24.5856C183.233 24.5856 183.695 24.4876 183.961 24.3476L184.913 23.5496L185.445 24.4736H186.075V19.6856C186.075 18.4816 185.263 17.4456 183.765 17.4456C183.499 17.4456 183.205 17.4876 182.869 17.5716L181.161 18.5236L181.301 18.8036ZM182.015 22.4996C182.015 21.7996 182.393 21.3516 183.093 21.0716C183.569 20.8896 184.171 20.7776 184.871 20.7356V23.2556C184.297 23.5916 183.835 23.7176 183.415 23.7176C182.477 23.7176 182.015 23.1576 182.015 22.4996ZM191.68 18.7196V17.4876C191.288 17.4876 190.868 17.5996 190.672 17.6976L189.216 19.0556L188.642 17.6136H188.012V24.4736H189.216V19.4056C189.888 18.9996 190.896 18.7756 191.68 18.7196ZM192.283 17.6136L195.041 24.4736L193.795 27.4136H194.355L198.485 17.6136H197.925L195.685 22.9756L193.571 17.6136H192.283ZM205.667 13.9736L201.635 24.4736H202.223L203.581 20.8756H207.431L208.761 24.4736H210.175L206.227 13.9736H205.667ZM203.763 20.3716L205.513 15.7236L207.235 20.3716H203.763ZM214.936 18.7196V17.4876C214.544 17.4876 214.124 17.5996 213.928 17.6976L212.472 19.0556L211.898 17.6136H211.268V24.4736H212.472V19.4056C213.144 18.9996 214.152 18.7756 214.936 18.7196ZM217.726 22.4016V18.0056H219.966V17.6136H217.726V15.8216H217.138L216.536 17.6136H215.57V18.0056H216.522V22.6536C216.522 23.9276 217.054 24.6416 218.23 24.6416C218.356 24.6416 218.538 24.6136 218.664 24.5716L220.008 23.6476L219.868 23.3956C219.448 23.5636 219.126 23.6616 218.678 23.6616C217.992 23.6616 217.726 23.3256 217.726 22.4016Z" fill="white"/>
<path fill-rule="evenodd" clip-rule="evenodd" d="M10.5388 0H31.9141L42.6316 27.2368H0L10.5388 0.453953V0ZM21.2768 26.7028H21.3548L21.3158 26.6037L21.2768 26.7028ZM26.3331 15.0001L21.8983 26.2705H30.7679L26.3331 15.0001ZM16.0894 14.4688L11.4456 26.2705H20.7333L16.0894 14.4688ZM11.0721 1.71807L1.41096 26.2705H10.4148L15.5741 13.1591L11.0721 1.71807ZM31.5594 1.71807L26.8485 13.6903L31.7987 26.2705H41.2206L31.5594 1.71807ZM21.8122 0.891491L26.3331 12.3806L30.854 0.891491H21.8122ZM11.7776 0.891491L16.0894 11.8493L20.4013 0.891491H11.7776ZM21.1067 1.71807L16.6048 13.1591L21.3158 25.1313L25.8177 13.6903L21.1067 1.71807Z" fill="white"/>
</svg>
