<svg width="205" height="27" viewBox="0 0 205 27" fill="none" xmlns="http://www.w3.org/2000/svg">
<path d="M32.3644 23.1175H33.2126V16.7171H35.577V16.3944H30V16.7171H32.3644V23.1175ZM36.2712 23.1175H37.0473V19.6305C37.5707 19.3257 37.8414 19.2181 38.1212 19.2181C38.7077 19.2181 39.222 19.6036 39.222 20.491V23.1175H39.9981V20.2131C39.9981 19.2809 39.4206 18.6175 38.473 18.6175C38.3196 18.6175 38.0941 18.6624 37.9317 18.7341L37.0473 19.3884V16.0359H36.2712V23.1175ZM44.6979 22.1404C44.2467 22.4183 43.8045 22.5707 43.3713 22.5707C42.4869 22.5707 41.6567 21.9522 41.6567 20.6703V20.6165H44.9235C44.9235 19.3974 44.0932 18.6175 43.0103 18.6175C41.8733 18.6175 40.9348 19.7291 40.9348 21.002C40.9348 22.3735 41.9094 23.2341 43.1186 23.2341C43.3623 23.2341 43.5247 23.1982 43.642 23.1534L44.8062 22.3018L44.6979 22.1404ZM41.6657 20.3924C41.756 19.4602 42.2523 18.8416 42.9197 18.8416C43.5337 18.8416 44.012 19.4243 44.0572 20.3924H41.6657ZM54.52 16.3944H54.1049L51.3164 22.006L48.4828 16.3944H48.0406V23.1175H48.4016V18.0976L50.9284 23.1175H51.1449L53.6717 18.0707V23.1175H54.52V16.3944ZM59.6849 18.7251H58.9088V22.2122C58.3854 22.5169 58.1147 22.6245 57.8349 22.6245C57.2484 22.6245 56.734 22.239 56.734 21.3516V18.7251H55.9579V21.6295C55.9579 22.5618 56.5354 23.2251 57.483 23.2251C57.6364 23.2251 57.862 23.1803 58.0244 23.1086L58.9449 22.4273L59.2788 23.1175H59.6849V18.7251ZM62.0019 23.2341C62.9404 23.2341 63.6623 22.7052 63.6623 21.8625C63.6623 21.3516 63.3645 20.9751 62.7238 20.6434L62.0109 20.3118C61.5236 20.0876 61.3251 19.8725 61.3251 19.5319C61.3251 19.1554 61.5958 18.8506 62.0741 18.8506C62.5433 18.8506 62.8772 19.0747 63.1841 19.496L63.5901 18.8954C63.2472 18.6982 62.787 18.6086 62.3358 18.6086C61.3882 18.6086 60.7295 19.1554 60.7295 19.8725C60.7295 20.3745 60.9821 20.7151 61.5868 20.993L62.3087 21.3247C62.8953 21.5936 63.0397 21.8536 63.0397 22.239C63.0397 22.6693 62.6877 23.001 62.1643 23.001C61.6499 23.001 61.1807 22.6066 60.946 22.1942L60.5129 22.7859C60.9099 23.1086 61.4785 23.2341 62.0019 23.2341ZM68.1132 22.1404C67.662 22.4183 67.2198 22.5707 66.7866 22.5707C65.9022 22.5707 65.072 21.9522 65.072 20.6703V20.6165H68.3388C68.3388 19.3974 67.5086 18.6175 66.4256 18.6175C65.2886 18.6175 64.3501 19.7291 64.3501 21.002C64.3501 22.3735 65.3247 23.2341 66.5339 23.2341C66.7776 23.2341 66.94 23.1982 67.0573 23.1534L68.2215 22.3018L68.1132 22.1404ZM65.081 20.3924C65.1713 19.4602 65.6676 18.8416 66.3354 18.8416C66.949 18.8416 67.4273 19.4243 67.4725 20.3924H65.081ZM73.0186 18.7251H72.2425V22.2122C71.7191 22.5169 71.4484 22.6245 71.1686 22.6245C70.5821 22.6245 70.0677 22.239 70.0677 21.3516V18.7251H69.2916V21.6295C69.2916 22.5618 69.8691 23.2251 70.8167 23.2251C70.9701 23.2251 71.1957 23.1803 71.3581 23.1086L72.2786 22.4273L72.6125 23.1175H73.0186V18.7251ZM75.0919 23.1175V19.6484C75.6063 19.3257 75.877 19.2181 76.22 19.2181C76.8065 19.2181 77.1585 19.6574 77.1585 20.3297V23.1175H77.9346V19.6753C78.449 19.3616 78.7287 19.2181 79.0626 19.2181C79.6492 19.2181 80.0011 19.6574 80.0011 20.3297V23.1175H80.7772V20.0518C80.7772 19.2181 80.1726 18.6175 79.3153 18.6175C79.1528 18.6175 78.9363 18.6624 78.7738 18.7341L77.8624 19.4871C77.6638 18.9671 77.2397 18.6175 76.5358 18.6175C76.3734 18.6175 76.1568 18.6624 75.9944 18.7341L75.0649 19.4243L74.7219 18.7251H74.3158V23.1175H75.0919ZM85.8157 18.6175C84.6155 18.6175 83.659 19.5857 83.659 20.9392C83.659 22.1942 84.5343 23.2251 85.7616 23.2251C86.9618 23.2251 87.9184 22.2659 87.9184 20.9124C87.9184 19.6574 87.043 18.6175 85.8157 18.6175ZM84.4441 20.4731C84.4441 19.4333 84.8863 18.9223 85.4909 18.9223C86.3031 18.9223 87.1333 19.8187 87.1333 21.3785C87.1333 22.4183 86.6911 22.9293 86.0865 22.9293C85.2743 22.9293 84.4441 22.0329 84.4441 20.4731ZM88.3956 18.9761H89.0092V23.1175H89.7853V18.9761H91.166V18.7251H89.7853V17.4074C89.7853 16.7171 90.065 16.3496 90.4531 16.3496C90.7148 16.3496 90.9494 16.502 91.175 16.7351L91.536 16.1076C91.3555 16.0269 91.0938 16 90.8682 16C90.2275 16 89.6409 16.3227 89.298 17.004C89.0904 17.4163 89.0092 17.9631 89.0092 18.5637V18.7251H88.3956V18.9761ZM96.0571 23.1175L98.5478 16.3944H98.1869L96.1564 21.8984L94.1169 16.3944H93.1965L95.6962 23.1175H96.0571ZM99.2559 23.1175H100.032V18.7251H99.2559V23.1175ZM99.1295 16.995C99.1295 17.2729 99.3551 17.506 99.6349 17.506C99.9146 17.506 100.158 17.2729 100.158 16.995C100.158 16.7171 99.9146 16.4841 99.6349 16.4841C99.3551 16.4841 99.1295 16.7171 99.1295 16.995ZM102.355 23.2341C103.294 23.2341 104.016 22.7052 104.016 21.8625C104.016 21.3516 103.718 20.9751 103.077 20.6434L102.364 20.3118C101.877 20.0876 101.679 19.8725 101.679 19.5319C101.679 19.1554 101.949 18.8506 102.428 18.8506C102.897 18.8506 103.231 19.0747 103.538 19.496L103.944 18.8954C103.601 18.6982 103.14 18.6086 102.689 18.6086C101.742 18.6086 101.083 19.1554 101.083 19.8725C101.083 20.3745 101.336 20.7151 101.94 20.993L102.662 21.3247C103.249 21.5936 103.393 21.8536 103.393 22.239C103.393 22.6693 103.041 23.001 102.518 23.001C102.003 23.001 101.534 22.6066 101.299 22.1942L100.866 22.7859C101.263 23.1086 101.832 23.2341 102.355 23.2341ZM105.019 23.1175H105.795V18.7251H105.019V23.1175ZM104.893 16.995C104.893 17.2729 105.119 17.506 105.398 17.506C105.678 17.506 105.922 17.2729 105.922 16.995C105.922 16.7171 105.678 16.4841 105.398 16.4841C105.119 16.4841 104.893 16.7171 104.893 16.995ZM108.94 18.6175C107.74 18.6175 106.784 19.5857 106.784 20.9392C106.784 22.1942 107.659 23.2251 108.886 23.2251C110.086 23.2251 111.043 22.2659 111.043 20.9124C111.043 19.6574 110.168 18.6175 108.94 18.6175ZM107.569 20.4731C107.569 19.4333 108.011 18.9223 108.616 18.9223C109.428 18.9223 110.258 19.8187 110.258 21.3785C110.258 22.4183 109.816 22.9293 109.211 22.9293C108.399 22.9293 107.569 22.0329 107.569 20.4731ZM112.026 23.1175H112.802V19.6305C113.325 19.3257 113.596 19.2181 113.876 19.2181C114.462 19.2181 114.976 19.6036 114.976 20.491V23.1175H115.753V20.2131C115.753 19.2809 115.175 18.6175 114.227 18.6175C114.074 18.6175 113.848 18.6624 113.686 18.7341L112.766 19.4153L112.432 18.7251H112.026V23.1175ZM117.05 19.4871C117.564 19.254 117.97 19.1643 118.268 19.1643C118.945 19.1643 119.351 19.4691 119.351 20.3745V20.5269C118.62 20.5538 118.024 20.6434 117.609 20.8137C116.887 21.1006 116.68 21.5757 116.68 22.0149C116.68 22.7141 117.248 23.1892 118.061 23.1892C118.295 23.1892 118.593 23.1265 118.764 23.0369L119.378 22.5259L119.721 23.1175H120.127V20.0518C120.127 19.2809 119.604 18.6175 118.638 18.6175C118.467 18.6175 118.277 18.6444 118.061 18.6982L116.96 19.3078L117.05 19.4871ZM117.51 21.8536C117.51 21.4054 117.754 21.1185 118.205 20.9392C118.512 20.8227 118.9 20.751 119.351 20.7241V22.3376C118.981 22.5528 118.683 22.6335 118.412 22.6335C117.808 22.6335 117.51 22.2749 117.51 21.8536ZM123.74 19.4333V18.6444C123.487 18.6444 123.217 18.7161 123.09 18.7789L122.152 19.6484L121.782 18.7251H121.376V23.1175H122.152V19.8725C122.585 19.6125 123.235 19.4691 123.74 19.4333ZM124.129 18.7251L125.907 23.1175L125.104 25H125.465L128.127 18.7251H127.766L126.322 22.1584L124.959 18.7251H124.129ZM132.756 16.3944L130.157 23.1175H130.536L131.412 20.8137H133.893L134.751 23.1175H135.662L133.117 16.3944H132.756ZM131.529 20.491L132.657 17.5149L133.767 20.491H131.529ZM138.731 19.4333V18.6444C138.478 18.6444 138.207 18.7161 138.081 18.7789L137.142 19.6484L136.772 18.7251H136.366V23.1175H137.142V19.8725C137.575 19.6125 138.225 19.4691 138.731 19.4333ZM140.529 21.7908V18.9761H141.973V18.7251H140.529V17.5777H140.15L139.762 18.7251H139.139V18.9761H139.753V21.9522C139.753 22.7679 140.096 23.2251 140.854 23.2251C140.935 23.2251 141.052 23.2072 141.134 23.1803L142 22.5886L141.91 22.4273C141.639 22.5349 141.431 22.5976 141.143 22.5976C140.701 22.5976 140.529 22.3825 140.529 21.7908Z" fill="white"/>
<path fill-rule="evenodd" clip-rule="evenodd" d="M6.67459 8H20.2123L27 25H0L6.67459 8.28334V8ZM13.4753 24.6667H13.5247L13.5 24.6048L13.4753 24.6667ZM16.6776 17.3623L13.8689 24.3969H19.4864L16.6776 17.3623ZM10.19 17.0308L7.24886 24.3969H13.1311L10.19 17.0308ZM7.01235 9.07234L0.89361 24.3969H6.59606L9.86359 16.2133L7.01235 9.07234ZM19.9876 9.07234L17.004 16.5449L20.1391 24.3969H26.1064L19.9876 9.07234ZM13.8144 8.55643L16.6776 15.7274L19.5408 8.55643H13.8144ZM7.45916 8.55643L10.19 15.3958L12.9208 8.55643H7.45916ZM13.3676 9.07234L10.5164 16.2133L13.5 23.6858L16.3512 16.5449L13.3676 9.07234Z" fill="white"/>
</svg>
