<svg width="380" height="50" viewBox="0 0 380 50" fill="none" xmlns="http://www.w3.org/2000/svg">
<path d="M84.408 42H86.664V24.864H92.952V24H78.12V24.864H84.408V42ZM94.7983 42H96.8623V32.664C98.2543 31.848 98.9743 31.56 99.7183 31.56C101.278 31.56 102.646 32.592 102.646 34.968V42H104.71V34.224C104.71 31.728 103.174 29.952 100.654 29.952C100.246 29.952 99.6463 30.072 99.2143 30.264L96.8623 32.016V23.04H94.7983V42ZM117.209 39.384C116.009 40.128 114.833 40.536 113.681 40.536C111.329 40.536 109.121 38.88 109.121 35.448V35.304H117.809C117.809 32.04 115.601 29.952 112.721 29.952C109.697 29.952 107.201 32.928 107.201 36.336C107.201 40.008 109.793 42.312 113.009 42.312C113.657 42.312 114.089 42.216 114.401 42.096L117.497 39.816L117.209 39.384ZM109.145 34.704C109.385 32.208 110.705 30.552 112.48 30.552C114.113 30.552 115.385 32.112 115.505 34.704H109.145ZM143.331 24H142.227L134.811 39.024L127.275 24H126.099V42H127.059V28.56L133.779 42H134.355L141.075 28.488V42H143.331V24ZM157.067 30.24H155.003V39.576C153.611 40.392 152.891 40.68 152.147 40.68C150.587 40.68 149.219 39.648 149.219 37.272V30.24H147.155V38.016C147.155 40.512 148.691 42.288 151.211 42.288C151.619 42.288 152.219 42.168 152.651 41.976L155.099 40.152L155.987 42H157.067V30.24ZM163.229 42.312C165.725 42.312 167.645 40.896 167.645 38.64C167.645 37.272 166.853 36.264 165.149 35.376L163.253 34.488C161.957 33.888 161.429 33.312 161.429 32.4C161.429 31.392 162.149 30.576 163.421 30.576C164.669 30.576 165.557 31.176 166.373 32.304L167.453 30.696C166.541 30.168 165.317 29.928 164.117 29.928C161.597 29.928 159.845 31.392 159.845 33.312C159.845 34.656 160.517 35.568 162.125 36.312L164.045 37.2C165.605 37.92 165.989 38.616 165.989 39.648C165.989 40.8 165.053 41.688 163.661 41.688C162.293 41.688 161.045 40.632 160.421 39.528L159.269 41.112C160.325 41.976 161.837 42.312 163.229 42.312ZM179.482 39.384C178.282 40.128 177.106 40.536 175.954 40.536C173.602 40.536 171.394 38.88 171.394 35.448V35.304H180.082C180.082 32.04 177.874 29.952 174.994 29.952C171.97 29.952 169.474 32.928 169.474 36.336C169.474 40.008 172.066 42.312 175.282 42.312C175.93 42.312 176.362 42.216 176.674 42.096L179.77 39.816L179.482 39.384ZM171.418 34.704C171.658 32.208 172.978 30.552 174.754 30.552C176.386 30.552 177.658 32.112 177.778 34.704H171.418ZM192.528 30.24H190.464V39.576C189.072 40.392 188.352 40.68 187.608 40.68C186.048 40.68 184.68 39.648 184.68 37.272V30.24H182.616V38.016C182.616 40.512 184.152 42.288 186.672 42.288C187.08 42.288 187.68 42.168 188.112 41.976L190.56 40.152L191.448 42H192.528V30.24ZM198.042 42V32.712C199.41 31.848 200.13 31.56 201.042 31.56C202.602 31.56 203.538 32.736 203.538 34.536V42H205.602V32.784C206.97 31.944 207.714 31.56 208.602 31.56C210.162 31.56 211.098 32.736 211.098 34.536V42H213.162V33.792C213.162 31.56 211.554 29.952 209.274 29.952C208.842 29.952 208.266 30.072 207.834 30.264L205.41 32.28C204.882 30.888 203.754 29.952 201.882 29.952C201.45 29.952 200.874 30.072 200.442 30.264L197.97 32.112L197.058 30.24H195.978V42H198.042ZM226.562 29.952C223.37 29.952 220.826 32.544 220.826 36.168C220.826 39.528 223.154 42.288 226.418 42.288C229.61 42.288 232.154 39.72 232.154 36.096C232.154 32.736 229.826 29.952 226.562 29.952ZM222.914 34.92C222.914 32.136 224.09 30.768 225.698 30.768C227.858 30.768 230.066 33.168 230.066 37.344C230.066 40.128 228.89 41.496 227.282 41.496C225.122 41.496 222.914 39.096 222.914 34.92ZM233.423 30.912H235.055V42H237.119V30.912H240.791V30.24H237.119V26.712C237.119 24.864 237.863 23.88 238.895 23.88C239.591 23.88 240.215 24.288 240.815 24.912L241.775 23.232C241.295 23.016 240.599 22.944 239.999 22.944C238.295 22.944 236.735 23.808 235.823 25.632C235.271 26.736 235.055 28.2 235.055 29.808V30.24H233.423V30.912ZM253.799 42L260.423 24H259.463L254.063 38.736L248.639 24H246.191L252.839 42H253.799ZM262.306 42H264.37V30.24H262.306V42ZM261.97 25.608C261.97 26.352 262.57 26.976 263.314 26.976C264.058 26.976 264.706 26.352 264.706 25.608C264.706 24.864 264.058 24.24 263.314 24.24C262.57 24.24 261.97 24.864 261.97 25.608ZM270.549 42.312C273.045 42.312 274.965 40.896 274.965 38.64C274.965 37.272 274.173 36.264 272.469 35.376L270.573 34.488C269.277 33.888 268.749 33.312 268.749 32.4C268.749 31.392 269.469 30.576 270.741 30.576C271.989 30.576 272.877 31.176 273.693 32.304L274.773 30.696C273.861 30.168 272.637 29.928 271.437 29.928C268.917 29.928 267.165 31.392 267.165 33.312C267.165 34.656 267.837 35.568 269.445 36.312L271.365 37.2C272.925 37.92 273.309 38.616 273.309 39.648C273.309 40.8 272.373 41.688 270.981 41.688C269.613 41.688 268.365 40.632 267.741 39.528L266.589 41.112C267.645 41.976 269.157 42.312 270.549 42.312ZM277.634 42H279.698V30.24H277.634V42ZM277.298 25.608C277.298 26.352 277.898 26.976 278.642 26.976C279.386 26.976 280.034 26.352 280.034 25.608C280.034 24.864 279.386 24.24 278.642 24.24C277.898 24.24 277.298 24.864 277.298 25.608ZM288.062 29.952C284.87 29.952 282.326 32.544 282.326 36.168C282.326 39.528 284.654 42.288 287.918 42.288C291.11 42.288 293.654 39.72 293.654 36.096C293.654 32.736 291.326 29.952 288.062 29.952ZM284.414 34.92C284.414 32.136 285.59 30.768 287.198 30.768C289.358 30.768 291.566 33.168 291.566 37.344C291.566 40.128 290.39 41.496 288.782 41.496C286.622 41.496 284.414 39.096 284.414 34.92ZM296.267 42H298.331V32.664C299.723 31.848 300.443 31.56 301.187 31.56C302.747 31.56 304.115 32.592 304.115 34.968V42H306.179V34.224C306.179 31.728 304.643 29.952 302.123 29.952C301.715 29.952 301.115 30.072 300.683 30.264L298.235 32.088L297.347 30.24H296.267V42ZM309.629 32.28C310.997 31.656 312.077 31.416 312.869 31.416C314.669 31.416 315.749 32.232 315.749 34.656V35.064C313.805 35.136 312.221 35.376 311.117 35.832C309.197 36.6 308.645 37.872 308.645 39.048C308.645 40.92 310.157 42.192 312.317 42.192C312.941 42.192 313.733 42.024 314.189 41.784L315.821 40.416L316.733 42H317.813V33.792C317.813 31.728 316.421 29.952 313.853 29.952C313.397 29.952 312.893 30.024 312.317 30.168L309.389 31.8L309.629 32.28ZM310.853 38.616C310.853 37.416 311.501 36.648 312.701 36.168C313.517 35.856 314.549 35.664 315.749 35.592V39.912C314.765 40.488 313.973 40.704 313.253 40.704C311.645 40.704 310.853 39.744 310.853 38.616ZM327.422 32.136V30.024C326.75 30.024 326.03 30.216 325.694 30.384L323.198 32.712L322.214 30.24H321.134V42H323.198V33.312C324.35 32.616 326.078 32.232 327.422 32.136ZM328.456 30.24L333.184 42L331.048 47.04H332.008L339.088 30.24H338.128L334.288 39.432L330.664 30.24H328.456ZM351.4 24L344.488 42H345.496L347.824 35.832H354.424L356.704 42H359.128L352.36 24H351.4ZM348.136 34.968L351.136 27L354.088 34.968H348.136ZM367.289 32.136V30.024C366.617 30.024 365.897 30.216 365.561 30.384L363.065 32.712L362.081 30.24H361.001V42H363.065V33.312C364.217 32.616 365.945 32.232 367.289 32.136ZM372.072 38.448V30.912H375.912V30.24H372.072V27.168H371.064L370.032 30.24H368.376V30.912H370.008V38.88C370.008 41.064 370.92 42.288 372.936 42.288C373.152 42.288 373.464 42.24 373.68 42.168L375.984 40.584L375.744 40.152C375.024 40.44 374.472 40.608 373.704 40.608C372.528 40.608 372.072 40.032 372.072 38.448Z" fill="white"/>
<path fill-rule="evenodd" clip-rule="evenodd" d="M17.7989 0H53.8994L72 46H0L17.7989 0.766676V0ZM35.9341 45.098H36.0659L36 44.9307L35.9341 45.098ZM44.4737 25.3334L36.9837 44.368H51.9636L44.4737 25.3334ZM27.1733 24.4362L19.3303 44.368H35.0163L27.1733 24.4362ZM18.6996 2.90163L2.38296 44.368H17.5895L26.3029 22.2242L18.6996 2.90163ZM53.3004 2.90163L45.3441 23.1215L53.7044 44.368H69.6171L53.3004 2.90163ZM36.8384 1.50563L44.4737 20.9095L52.1089 1.50563H36.8384ZM19.8911 1.50563L27.1733 20.0122L34.4555 1.50563H19.8911ZM35.6469 2.90163L28.0437 22.2242L36 42.444L43.6033 23.1215L35.6469 2.90163Z" fill="white"/>
</svg>
